<svg xmlns="http://www.w3.org/2000/svg" xmlns:xlink="http://www.w3.org/1999/xlink" width="18" height="23" viewBox="0 0 18 23">
    <title>
        Fill-1
    </title>
    <desc>
        Created using Figma
    </desc>
    <use fill="currentColor" xlink:href="#android"/>
    <defs>
        <path id="android" fill-rule="evenodd" d="M13.102.087a.19.19 0 0 1 .025.07.221.221 0 0 1-.008.105.244.244 0 0 1-.03.06l-1.14 1.67C13.761 2.843 14.84 4.113 15 6H3c.161-1.887 1.291-3.157 3.102-4.008L4.962.322a.234.234 0 0 1-.04-.141A.189.189 0 0 1 5 .03c.089-.06.215-.03.283.07l1.184 1.733a6.925 6.925 0 0 1 2.559-.482c.913 0 1.78.172 2.56.482L12.768.1c.067-.1.194-.13.282-.068a.175.175 0 0 1 .051.055zM3 17c0 .602.494 1.058 1.09 1.058h.82v3.308c0 .785.46 1.634 1.226 1.634s1.228-.849 1.228-1.634v-3.308h3.272v3.308c0 .785.462 1.634 1.228 1.634.765 0 1.227-.849 1.227-1.634v-3.308h.818c.597 0 1.091-.456 1.091-1.058V7H3v10zM0 8.706c0-.557.231-1.037.567-1.263A.77.77 0 0 1 1 7.306c.552 0 1 .626 1 1.4v5.47c0 .774-.448 1.4-1 1.4s-1-.626-1-1.4v-5.47zm16 0c0-.774.448-1.4 1-1.4s1 .626 1 1.4v5.47c0 .774-.448 1.4-1 1.4a.815.815 0 0 1-.568-.247 1.311 1.311 0 0 1-.273-.394c-.1-.22-.159-.48-.159-.759v-5.47zM6.424 4.624a.686.686 0 0 1-.682-.689c0-.38.305-.689.682-.689a.689.689 0 0 1 .682.689c0 .38-.305.689-.682.689zm4.606-.689c0 .38.306.689.683.689a.686.686 0 0 0 .682-.689.686.686 0 0 0-.682-.689.686.686 0 0 0-.682.69z"/>
    </defs>
</svg>
