<svg xmlns="http://www.w3.org/2000/svg" xmlns:xlink="http://www.w3.org/1999/xlink" width="23" height="26" viewBox="0 0 23 26">
    <title>
        path-3
    </title>
    <desc>
        Created using Figma
    </desc>
    <g fill="#FFF" transform="translate(1 1)">
        <use xlink:href="#apple"/>
        <use fill-opacity=".16" xlink:href="#apple2"/>
    </g>
    <defs>
        <path id="apple" fill-rule="evenodd" d="M17.25 13.064c-.029-3.103 2.626-4.613 2.748-4.684-1.504-2.12-3.834-2.41-4.653-2.434-1.958-.2-3.856 1.134-4.853 1.134-1.017 0-2.552-1.115-4.207-1.082-2.13.032-4.122 1.225-5.214 3.078-2.255 3.777-.573 9.329 1.587 12.382 1.08 1.497 2.343 3.166 3.996 3.107 1.617-.064 2.221-.998 4.172-.998 1.934 0 2.5.998 4.186.96 1.736-.026 2.828-1.502 3.871-3.012 1.249-1.712 1.75-3.402 1.77-3.489-.04-.012-3.369-1.242-3.403-4.962zm-3.184-9.126c.87-1.053 1.465-2.485 1.3-3.938-1.26.054-2.833.843-3.74 1.872-.802.907-1.518 2.394-1.333 3.792 1.414.102 2.866-.69 3.773-1.726z"/>
        <path id="apple2" d="M17.25 13.064l.423-.004-.423.004zm2.748-4.684l.212.367.401-.233-.268-.378-.345.244zm-4.653-2.434l-.043.421.015.002h.016l.012-.423zm-9.06.052l.006.423h.002l-.008-.423zM1.07 9.076l.363.217.001-.002-.364-.215zm1.587 12.382l-.346.245.003.003.343-.248zm3.996 3.107l.015.423h.002l-.017-.423zm8.358-.039l-.006-.423h-.003l.01.423zm3.871-3.01l-.342-.25-.006.009.348.24zm1.77-3.49l.413.095.087-.38-.373-.118-.127.403zM14.066 3.938l.318.278.008-.009-.326-.27zM15.366 0l.42-.048-.044-.392-.395.017.019.423zm-3.74 1.872l.317.28-.317-.28zm-1.333 3.792l-.42.056.046.341.343.025.03-.422zm7.38 7.396c-.026-2.844 2.416-4.244 2.537-4.313l-.424-.733c-.123.071-2.99 1.691-2.959 5.054l.846-.008zm2.67-4.924c-1.619-2.284-4.118-2.588-4.986-2.613l-.024.846c.77.022 2.931.297 4.32 2.256l.69-.49zm-4.955-2.61c-1.08-.11-2.121.203-2.975.515-.453.165-.802.31-1.157.434-.347.121-.593.181-.764.181v.847c.327 0 .692-.107 1.043-.23.343-.119.777-.295 1.168-.438.835-.304 1.722-.557 2.599-.468l.086-.842zm-4.896 1.13c-.185 0-.42-.052-.72-.152-.301-.1-.622-.23-.993-.373-.72-.275-1.585-.574-2.503-.556l.017.846c.738-.014 1.468.227 2.183.5.347.133.704.279 1.029.386.325.108.663.196.987.196v-.847zm-4.213-1.08C3.996 5.608 1.87 6.885.706 8.86l.73.43c1.02-1.73 2.879-2.84 4.855-2.87l-.012-.846zM.707 8.858c-1.198 2.007-1.334 4.455-.915 6.755.42 2.304 1.405 4.512 2.52 6.089l.691-.489c-1.045-1.477-1.98-3.571-2.378-5.751-.398-2.183-.247-4.4.81-6.17l-.728-.434zm1.608 12.847c.537.744 1.147 1.571 1.842 2.202.696.632 1.529 1.115 2.512 1.08l-.03-.846c-.67.024-1.295-.299-1.913-.86-.62-.563-1.182-1.32-1.725-2.071l-.686.495zm4.356 3.282c.894-.036 1.517-.317 2.102-.554.578-.233 1.158-.444 2.053-.444v-.846c-1.055 0-1.753.257-2.37.506-.608.246-1.096.464-1.819.492l.034.846zm4.155-.998c.881 0 1.443.223 2.025.462.594.245 1.231.519 2.171.497l-.02-.846c-.745.017-1.235-.189-1.829-.433-.606-.25-1.294-.526-2.347-.526v.846zm4.193.96c1-.015 1.801-.452 2.472-1.059.662-.598 1.222-1.384 1.74-2.135l-.696-.481c-.524.759-1.032 1.465-1.611 1.989-.57.515-1.182.829-1.918.84l.013.845zm4.206-3.185c1.287-1.765 1.81-3.51 1.84-3.644l-.824-.19c0-.002-.027.1-.096.296a12.256 12.256 0 0 1-1.604 3.039l.684.499zm1.555-4.142c.028.008-.757-.275-1.544-.999-.776-.713-1.547-1.846-1.563-3.564l-.846.008c.018 2.002.93 3.345 1.836 4.179.896.824 1.796 1.162 1.863 1.183l.254-.807zM14.392 4.207c.922-1.116 1.575-2.659 1.394-4.255l-.84.096c.148 1.31-.389 2.63-1.206 3.62l.652.539zm.956-4.63c-1.385.06-3.064.908-4.04 2.015l.636.56c.838-.952 2.307-1.68 3.44-1.73l-.037-.845zm-4.039 2.015c-.85.961-1.642 2.566-1.436 4.128l.84-.111c-.164-1.235.476-2.604 1.23-3.457l-.634-.56zm-1.047 4.494c1.582.114 3.154-.764 4.122-1.87l-.636-.557c-.846.966-2.178 1.673-3.425 1.583l-.06.844z"/>
    </defs>
</svg>
