<svg xmlns="http://www.w3.org/2000/svg" xmlns:xlink="http://www.w3.org/1999/xlink" width="60" height="60" viewBox="0 0 60 60">
    <title>
        Group
    </title>
    <desc>
        Created using Figma
    </desc>
    <use fill="#E2F8FF" xlink:href="#calen"/>
    <use fill="#93E5FF" transform="translate(16 26)" xlink:href="#calen2"/>
    <use fill="#00C2FF" transform="translate(16 18)" xlink:href="#calen3"/>
    <use fill="#00C2FF" transform="translate(21 16)" xlink:href="#calen4"/>
    <use fill="#00C2FF" transform="translate(36 16)" xlink:href="#calen4"/>
    <defs>
        <path id="calen" fill-rule="evenodd" d="M0 30C0 13.431 13.431 0 30 0c16.569 0 30 13.431 30 30 0 16.569-13.431 30-30 30C13.431 60 0 46.569 0 30z"/>
        <path id="calen2" d="M0 0h28v16.005C28 17.107 27.1 18 26.009 18H1.99A1.992 1.992 0 0 1 0 16.005V0z"/>
        <path id="calen3" fill-rule="evenodd" d="M1.991 0A2.004 2.004 0 0 0 0 2.006V7h28V2.006C28 .887 27.109 0 26.01 0H1.991zm9.952 19.582L14 18.5l2.057 1.082c.486.255.807.023.714-.519l-.393-2.29 1.664-1.623c.393-.383.272-.76-.273-.838l-2.3-.335-1.028-2.084c-.242-.491-.638-.493-.882 0l-1.028 2.084-2.3.335c-.543.078-.667.454-.273.838l1.664 1.623-.393 2.29c-.092.541.227.775.714.519z"/>
        <path id="calen4" d="M0 1a1 1 0 0 1 1-1h1a1 1 0 0 1 1 1v2a1 1 0 0 1-1 1H1a1 1 0 0 1-1-1V1z"/>
    </defs>
</svg>
