<svg xmlns="http://www.w3.org/2000/svg" xmlns:xlink="http://www.w3.org/1999/xlink" width="22" height="22" viewBox="0 0 22 22">
    <title>
        svg
    </title>
    <desc>
        Created using Figma
    </desc>
    <use fill="#A0B0B9" xlink:href="#clubs"/>
    <defs>
        <path id="clubs" fill-rule="evenodd" d="M22 1.222v1.222l-9.778 11v6.111h4.89c.679 0 1.221.548 1.221 1.223 0 .68-.55 1.222-1.224 1.222H4.89a1.23 1.23 0 0 1-1.224-1.222c0-.68.547-1.223 1.222-1.223h4.889v-6.11L0 2.444V1.221C0 .542.544 0 1.214 0h19.572C21.456 0 22 .548 22 1.222zM5.058 3.978c.46.508 1.367.91 2.037.91h7.797c.662 0 1.585-.406 2.043-.91l1.399-1.534H3.667l1.39 1.534z"/>
    </defs>
</svg>
