<svg xmlns="http://www.w3.org/2000/svg" xmlns:xlink="http://www.w3.org/1999/xlink" width="22" height="22" viewBox="0 0 22 22">
    <title>
        svg
    </title>
    <desc>
        Created using Figma
    </desc>
    <use fill="currentColor" xlink:href="#family"/>
    <defs>
        <path id="family" fill-rule="evenodd" d="M12.737 8.8V0C17.855 0 22 3.938 22 8.8h-9.263zM22 9.9c0 2.024-.73 3.894-1.945 5.379.833.704 1.366 1.727 1.366 2.871 0 2.123-1.818 3.85-4.053 3.85-2.037 0-3.728-1.43-4.006-3.3h-2.408c-.278 1.87-1.969 3.3-4.007 3.3-2.234 0-4.052-1.727-4.052-3.85 0-1.463.856-2.739 2.13-3.388C4.76 14.377 2.571 9.9 2.571 9.9H0V7.7h4.041l1.1 2.2H22zM6.947 19.8c-.96 0-1.737-.737-1.737-1.65 0-.913.776-1.65 1.737-1.65.961 0 1.737.737 1.737 1.65 0 .913-.776 1.65-1.737 1.65zm8.685-1.65c0 .913.775 1.65 1.736 1.65.962 0 1.737-.737 1.737-1.65 0-.913-.775-1.65-1.737-1.65-.96 0-1.736.737-1.736 1.65z"/>
    </defs>
</svg>
