<svg xmlns="http://www.w3.org/2000/svg" xmlns:xlink="http://www.w3.org/1999/xlink" width="13" height="13" viewBox="0 0 13 13">
    <title>
        Combined Shape
    </title>
    <desc>
        Created using Figma
    </desc>
    <use fill="currentColor" xlink:href="#instagram"/>
    <defs>
        <path id="instagram" fill-rule="evenodd" d="M10 4h2V2h-2v2zm-9 8h11V6h-1.973s.348 3.985-3.527 3.985S2.99 6 2.99 6H1v6zm8-5.5a2.499 2.499 0 1 0-5 0C3.988 7.865 5.105 8.99 6.5 9c1.37.01 2.494-1.11 2.5-2.5zM11.375 0c.35.02-9.75 0-9.75 0-.357.013-.41.026-.813 0C.542.208.162.606 0 1.625c.02-.36 0 9.75 0 9.75.012.353.025.402 0 .813.176.24.64.678 1.625.812-.35-.02 9.75 0 9.75 0 .35-.01.394-.023.813 0 .22-.16.675-.633.812-1.625-.02.36 0-9.75 0-9.75-.013-.357-.026-.41 0-.813-.21-.276-.61-.658-1.625-.812z"/>
    </defs>
</svg>
