<svg xmlns="http://www.w3.org/2000/svg" xmlns:xlink="http://www.w3.org/1999/xlink" width="30" height="29" viewBox="0 0 30 29">
    <title>
        logo
    </title>
    <desc>
        Created using Figma
    </desc>
    <g transform="translate(-2413 -12)">
        <g id="logo">
            <use fill="currentColor" transform="translate(2413 12)" xlink:href="#logo"/>
            <use fill="currentColor" transform="translate(2421 19)" xlink:href="#logo2"/>
            <use fill="currentColor" transform="translate(2423.99 26)" xlink:href="#logo3"/>
        </g>
    </g>
    <defs>
        <path id="logo2" fill-rule="evenodd" d="M8.146 18H5.849C2.683 18 0 15.405 0 12.365V5.55C0 2.508 2.682 0 5.85 0h2.295c3.167 0 5.85 2.508 5.85 5.55v6.815c.002 3.04-2.682 5.635-5.85 5.635h.001zm3.806-12.57C11.952 3.49 10.184 2 7.98 2H5.963c-2.202 0-3.97 1.49-3.97 3.43v4.14c0 1.94 1.768 3.43 3.97 3.43H7.98c2.203 0 3.97-1.49 3.97-3.43V5.43z"/>
        <path id="logo3" fill-rule="evenodd" d="M3.52 5h-.11C1.38 5 0 3.926 0 1.828V.54S-.007 0 .483 0s.49.54.49.54v1.288c0 1.56.945 2.195 2.437 2.195h.11s.479.023.479.498c-.002.474-.48.479-.48.479h.001z"/>
    </defs>
</svg>
