<svg xmlns="http://www.w3.org/2000/svg" xmlns:xlink="http://www.w3.org/1999/xlink" width="64" height="64" viewBox="0 0 64 64">
    <title>
        Group
    </title>
    <desc>
        Created using Figma
    </desc>
    <use fill="#E2F8FF" xlink:href="#logoCompas"/>
    <use fill="#93E5FF" transform="translate(20 20)" xlink:href="#logoCompas2"/>
    <use fill="#93E5FF" transform="translate(13.61 13.111)" xlink:href="#logoCompas3"/>
    <use fill="#00C2FF" transform="translate(17.9 17.901)" xlink:href="#logoCompas4"/>
    <defs>
        <path id="logoCompas" fill-rule="evenodd" d="M0 32C0 14.327 14.327 0 32 0c17.673 0 32 14.327 32 32 0 17.673-14.327 32-32 32C14.327 64 0 49.673 0 32z"/>
        <path id="logoCompas2" fill-rule="evenodd" d="M0 12c0 6.627 5.373 12 12 12s12-5.373 12-12S18.627 0 12 0 0 5.373 0 12zm22 0c0 5.523-4.477 10-10 10S2 17.523 2 12 6.477 2 12 2s10 4.477 10 10z"/>
        <path id="logoCompas3" fill-rule="evenodd" d="M19.022.787c-.35-1.05-.916-1.048-1.266 0L15.39 7.89h6L19.022.787zm0 36.204c-.35 1.051-.916 1.048-1.266 0L15.39 29.89h6l-2.367 7.102zm16.97-18.235c1.047.35 1.05.915 0 1.266l-7.103 2.367v-6l7.102 2.367zM.786 20.022c-1.05-.35-1.048-.916 0-1.266L7.89 16.39v6L.787 20.022z"/>
        <path id="logoCompas4" fill-rule="evenodd" d="M27.904.946c.573-.93.285-1.229-.652-.652l-16.687 10.27L.295 27.252c-.574.93-.286 1.23.651.654l16.688-10.27L27.904.945zM14.618 16.032a2 2 0 1 1-1.037-3.865 2 2 0 0 1 1.037 3.865z"/>
    </defs>
</svg>
