<svg xmlns="http://www.w3.org/2000/svg" xmlns:xlink="http://www.w3.org/1999/xlink" width="30" height="29" viewBox="0 0 30 29">
    <title>
        aviasales
    </title>
    <desc>
        Created using Figma
    </desc>
    <use fill="currentColor" xlink:href="#logo"/>
    <use fill="currentColor" transform="translate(8 7)" xlink:href="#logo2"/>
    <use fill="currentColor" transform="translate(10.99 14)" xlink:href="#logo3"/>
    <defs>
        <path id="logo" fill-rule="evenodd" d="M29.999 20L30 24.252C30 27.174 28.11 29 24.58 29H4.916C1.89 29 .001 27.174.001 24.252L0 20h.933c2.203 0 4.062-1.555 4.062-3.582v-3.836C4.995 10.555 3.136 9 .933 9H0V4.748C0 1.826 1.89 0 4.915 0H24.58C27.606 0 30 1.826 30 4.748V9h-.933c-2.202 0-4.06 1.555-4.06 3.582v3.57c0 2.027 1.859 3.848 4.06 3.848H30h-.001zm-7.01-7.437C22.99 8.918 19.852 6 16.03 6h-2.057c-3.823 0-6.96 2.92-6.96 6.563v6.79c0 3.642 3.137 6.647 6.96 6.647h2.057c3.823 0 6.96-3.005 6.96-6.648v-6.789z"/>
        <path id="logo2" fill-rule="evenodd" d="M8.146 18H5.849C2.683 18 0 15.405 0 12.365V5.55C0 2.508 2.682 0 5.85 0h2.295c3.167 0 5.85 2.508 5.85 5.55v6.815c.002 3.04-2.682 5.635-5.85 5.635h.001zm3.806-12.57c0-1.94-1.768-3.43-3.97-3.43H5.962c-2.202 0-3.97 1.49-3.97 3.43v4.14c0 1.94 1.768 3.43 3.97 3.43h2.018c2.203 0 3.971-1.49 3.971-3.43V5.43z"/>
        <path id="logo3" fill-rule="evenodd" d="M3.52 5h-.11C1.38 5 0 3.926 0 1.828V.54S-.007 0 .483 0s.49.54.49.54v1.288c0 1.56.945 2.195 2.437 2.195h.11s.479.023.479.498c-.002.474-.48.479-.48.479h.001z"/>
    </defs>
</svg>
