<svg xmlns="http://www.w3.org/2000/svg" xmlns:xlink="http://www.w3.org/1999/xlink" width="22" height="22" viewBox="0 0 22 22">
    <title>
        Group
    </title>
    <desc>
        Created using Figma
    </desc>
    <g transform="translate(1 1)">
        <use fill-opacity=".01" xlink:href="#pick"/>
        <use fill="currentColor" xlink:href="#pickb"/>
    </g>
    <use fill="currentColor" transform="translate(6.5 5.5)" xlink:href="#pickc"/>
    <defs>
        <path id="pick" fill-rule="evenodd" d="M0 10C0 4.477 4.477 0 10 0s10 4.477 10 10-4.477 10-10 10S0 15.523 0 10z"/>
        <path id="pickb" d="M10 19.5A9.5 9.5 0 0 1 .5 10h-1c0 5.799 4.701 10.5 10.5 10.5v-1zm9.5-9.5a9.5 9.5 0 0 1-9.5 9.5v1c5.799 0 10.5-4.701 10.5-10.5h-1zM10 .5a9.5 9.5 0 0 1 9.5 9.5h1C20.5 4.201 15.799-.5 10-.5v1zm0-1C4.201-.5-.5 4.201-.5 10h1A9.5 9.5 0 0 1 10 .5v-1z"/>
        <path id="pickc" fill-rule="evenodd" d="M.69 9.77c-.17.156-.36.159-.5.007-.14-.154-.136-.37.007-.56.39-.504 1.492-1.854 2.118-2.617L.079 4.142C-.085 3.96.05 3.787.1 3.732c.428-.47 1.375-.666 2.25-.262l.134.146c.922-.763 2.203-1.905 2.98-2.53L5.314.919a.526.526 0 0 1-.134-.354c0-.133.048-.26.134-.354l.06-.064A.435.435 0 0 1 5.695 0c.12 0 .236.053.321.147L8.96 3.383a.526.526 0 0 1 .134.354c0 .133-.048.26-.134.354l-.059.065a.435.435 0 0 1-.322.147.435.435 0 0 1-.322-.147l-.109-.12c-.576.854-1.625 2.24-2.332 3.244l.122.134c.353.935.168 1.974-.225 2.46-.06.065-.21.23-.394.03L3.085 7.446c-.739.72-2.044 2-2.395 2.322v.002z"/>
    </defs>
</svg>
