<svg xmlns="http://www.w3.org/2000/svg" xmlns:xlink="http://www.w3.org/1999/xlink" width="22" height="22" viewBox="0 0 22 22">
    <title>
        svg
    </title>
    <desc>
        Created using Figma
    </desc>
    <use fill="currentColor" transform="translate(0 .954)" xlink:href="#relax"/>
    <defs>
        <path id="relax" d="M1.784 3.095c1.039-.835 2.31-1.072 3.685-.951 1.928.165 3.582.92 5.15 1.843l.352.21c.048-.157.088-.292.127-.428.343-1.196.955-2.256 2.105-3.032 1.573-1.06 3.515-.924 4.983.073-1.973.245-3.302 1.28-4.49 2.618.594-.076 1.1-.153 1.606-.205 1.026-.105 2.05-.094 3.053.14 1.87.438 2.943 1.535 3.355 3.128.154.588.195 1.198.289 1.798l-.1.036c-.117-.108-.23-.216-.351-.323-1.25-1.119-2.71-1.934-4.512-2.213-1.045-.163-2.082-.127-3.078.235-.15.054-.29.131-.431.197 2.536.25 4.414 1.414 5.854 3.122 1.5 1.776 1.565 3.684.404 5.626-.591.988-1.705 2.156-2.68 2.843-.029-.335-.044-.655-.086-.971-.271-2.099-.865-4.116-2.097-5.96-.58-.866-1.304-1.624-2.354-2.1-.115-.052-.234-.093-.396-.157-.017.158-.037.29-.042.421-.106 2.47-.352 4.929-1.038 7.34-.352 1.243-.794 2.46-1.55 3.575-.026.038-.282.322-.282.322-.37.417-1.164.753-1.769.751L3.46 21.02c-1.215-.005-1.491-.612-.63-1.352 0 0 1.077-.899 2.201-1.954 2.418-2.27 3.83-4.961 4.345-8.008.055-.329.108-.66.173-1.057a10.9 10.9 0 0 0-4.98 3.153c-1.315 1.442-2.084 3.068-2.142 4.929-.037-.008-.072-.006-.088-.02-1.05-.946-1.874-2.002-2.121-3.328-.253-1.368.147-2.614 1.058-3.727 1.43-1.748 3.37-2.86 5.811-3.295.224-.04.454-.057.682-.07.224-.012.45-.003.742-.003-.39-.363-.825-.556-1.298-.679-1.157-.296-2.307-.186-3.446.077C2.407 6 1.16 6.516 0 7.329c.073-1.626.38-3.11 1.784-4.237v.003z"/>
    </defs>
</svg>
