<svg xmlns="http://www.w3.org/2000/svg" xmlns:xlink="http://www.w3.org/1999/xlink" width="16" height="15" viewBox="0 0 16 15">
    <title>
        Shape
    </title>
    <desc>
        Created using Figma
    </desc>
    <use fill="currentColor" transform="translate(.18 .04)" xlink:href="#rss"/>
    <defs>
        <path id="rss" fill-rule="evenodd" d="M10.623 4.241C5.887-.522.014.018.014.018l.011 2.663s4.922-.057 8.549 3.59c3.626 3.645 3.457 8.255 3.457 8.255l2.891-.006c-.001 0 .436-5.517-4.299-10.279zM.015 5.177C.017 6.277.01 6.898 0 7.823c1.581.068 3.663.115 5.191 1.828s1.569 3 1.917 4.867c1.308 0 1.633-.008 2.71-.028-.147-1.982-.983-4.789-2.668-6.61C5.464 6.06 2.066 5.165.015 5.177zm2.019 5.307a2.024 2.024 0 1 0 0 4.048 2.024 2.024 0 0 0 0-4.048z"/>
    </defs>
</svg>
