<svg xmlns="http://www.w3.org/2000/svg" xmlns:xlink="http://www.w3.org/1999/xlink" width="22" height="22" viewBox="0 0 22 22">
    <title>
        svg
    </title>
    <desc>
        Created using Figma
    </desc>
    <use fill="currentColor" xlink:href="#shoping"/>
    <defs>
        <path id="shoping" fill-rule="evenodd" d="M16.21 8.082L11.83.486a.945.945 0 0 0-1.66.012L5.79 8.082H1c-.55 0-1 .521-1 1.158 0 .104.01.208.04.313l2.54 10.733c.23.973 1 1.69 1.92 1.69h13c.92 0 1.69-.717 1.93-1.69l2.54-10.733.03-.313c0-.637-.45-1.158-1-1.158h-4.79zm-8.21 0l3-5.095 3 5.095H8zm1 6.947c0 1.274.9 2.316 2 2.316s2-1.042 2-2.315c0-1.274-.9-2.316-2-2.316s-2 1.042-2 2.316z"/>
    </defs>
</svg>
