<svg xmlns="http://www.w3.org/2000/svg" xmlns:xlink="http://www.w3.org/1999/xlink" width="15" height="12" viewBox="0 0 15 12">
    <title>
        Path
    </title>
    <desc>
        Created using Figma
    </desc>
    <use fill="currentColor" xlink:href="#twitter"/>
    <defs>
        <path id="twitter" fill-rule="evenodd" d="M7.305 3.027c0 .237.027.468.08.69A8.788 8.788 0 0 1 1.041.551a2.98 2.98 0 0 0-.416 1.524 3.01 3.01 0 0 0 1.37 2.52A3.078 3.078 0 0 1 .6 4.217v.038c0 1.468 1.06 2.692 2.468 2.97a3.075 3.075 0 0 1-1.39.053 3.082 3.082 0 0 0 2.878 2.106 6.233 6.233 0 0 1-3.822 1.297c-.248 0-.493-.013-.734-.04a8.822 8.822 0 0 0 4.715 1.356c5.66 0 8.756-4.616 8.756-8.62 0-.13-.003-.26-.01-.39a6.198 6.198 0 0 0 1.537-1.57c-.55.24-1.144.404-1.767.478A3.051 3.051 0 0 0 14.585.218a6.27 6.27 0 0 1-1.955.74A3.087 3.087 0 0 0 10.386 0c-1.7 0-3.077 1.357-3.077 3.03l-.004-.003z"/>
    </defs>
</svg>
