<svg xmlns="http://www.w3.org/2000/svg" xmlns:xlink="http://www.w3.org/1999/xlink" width="14" height="14" viewBox="0 0 14 14">
    <title>
        viber-c7e034d1e5fc0b41f77f1d2085d7f21a
    </title>
    <desc>
        Created using Figma
    </desc>
    <use fill="#5A5A5A" xlink:href="#viber"/>
    <defs>
        <path id="viber" fill-rule="evenodd" d="M13.869 6.372C13.909 3.127 11.025.12 7.674.009c-.059.009-.133.004-.213-.002a1.25 1.25 0 0 0-.296.003.35.35 0 0 0-.187.087c-.062.059-.104.152-.112.297-.022.374.418.313.707.356 3.489.526 5.097 2.152 5.541 5.597.01.069.01.146.012.224.005.28.01.575.372.581.483.01.367-.462.37-.78zm-2.84 7.592l.022.005.037.008.094.023c1.087.01 2.359-1.015 2.727-2.034.176-.49.078-.831-.139-1.11-.216-.277-.551-.492-.847-.725-.435-.344-.9-.652-1.358-.967-.914-.63-1.75-.678-2.432.334-.382.568-.918.593-1.478.343-1.545-.686-2.738-1.744-3.437-3.283-.309-.682-.305-1.292.418-1.774.383-.255.769-.556.738-1.113-.04-.725-1.838-3.15-2.547-3.407a1.299 1.299 0 0 0-.885 0C.277.812-.412 2.154.248 3.744c1.97 4.74 5.436 8.04 10.207 10.054.091.039.186.07.276.095.108.03.211.052.299.071zm1.12-8.174a1.212 1.212 0 0 0-.003.197c.007.22.016.463-.28.507-.53.08-.427-.396-.479-.702-.354-2.095-1.105-2.863-3.26-3.335-.06-.014-.126-.022-.194-.032-.19-.026-.39-.052-.486-.178-.05-.065-.07-.158-.048-.29.066-.388.395-.334.698-.286l.01.001c.051.009.1.017.149.022 2.152.254 3.91 2.085 3.893 4.096zm-1.977.201c.32-.037.35-.317.34-.582.015-.97-1.104-2.093-2.059-2.07-.224.006-.443.03-.526.265-.123.35.137.434.401.476.478.075.833.258 1.073.548.204.246.324.568.365.965.024.235.175.425.406.398z"/>
    </defs>
</svg>
