<svg xmlns="http://www.w3.org/2000/svg" xmlns:xlink="http://www.w3.org/1999/xlink" width="16" height="10" viewBox="0 0 16 10">
    <title>
        Path
    </title>
    <desc>
        Created using Figma
    </desc>
    <use fill="currentColor" xlink:href="#vk"/>
    <defs>
        <path id="vk" fill-rule="evenodd" d="M8.783 8.975s.29-.03.437-.188c.136-.144.13-.414.13-.414s-.017-1.265.578-1.452c.587-.18 1.34 1.226 2.14 1.767.605.41 1.064.32 1.064.32l2.136-.03s1.118-.068.588-.935c-.043-.07-.31-.64-1.59-1.81-1.34-1.227-1.16-1.03.455-3.15.986-1.29 1.34-2.394 1.22-2.73-.117-.324-.84-.24-.84-.24l-2.406.016s-.178-.024-.31.054c-.13.075-.213.253-.213.253S11.826 1.75 11.32 2.6c-1.072 1.793-1.5 1.888-1.675 1.776-.407-.26-.306-1.042-.306-1.6 0-1.737.268-2.462-.52-2.65-.262-.06-.454-.103-1.123-.11C6.834.008 6.11.02 5.697.218c-.273.132-.484.427-.356.444.16.02.52.095.71.35.248.332.24 1.075.24 1.075s.14 2.046-.33 2.3c-.326.174-.77-.18-1.726-1.81-.491-.834-.86-2.167-.86-2.167.001 0-.071-.17-.2-.262C3.025.035 2.811 0 2.811 0L.52.015S.18.025.053.17C-.06.303.043.574.043.574s1.79 4.54 3.816 6.62c1.855 1.906 3.965 1.78 3.965 1.78h.956l.003.001z"/>
    </defs>
</svg>
