<svg xmlns="http://www.w3.org/2000/svg" xmlns:xlink="http://www.w3.org/1999/xlink" width="22" height="22" viewBox="0 0 22 22">
    <title>
        svg
    </title>
    <desc>
        Created using Figma
    </desc>
    <use fill="currentColor" xlink:href="#world"/>
    <defs>
        <path id="world" fill-rule="evenodd" d="M0 11C0 4.928 4.917 0 10.989 0 17.072 0 22 4.928 22 11s-4.928 11-11.011 11C4.917 22 0 17.072 0 11zm15.367-4.4h3.245a8.833 8.833 0 0 0-4.763-3.916A17.224 17.224 0 0 1 15.367 6.6zM11 2.244A15.498 15.498 0 0 1 13.1 6.6H8.9A15.49 15.49 0 0 1 11 2.244zM2.2 11c0 .759.11 1.496.286 2.2h3.718A18.19 18.19 0 0 1 6.05 11c0-.748.066-1.474.154-2.2H2.486A9.077 9.077 0 0 0 2.2 11zm1.188 4.4h3.245a17.208 17.208 0 0 0 1.518 3.916A8.785 8.785 0 0 1 3.388 15.4zm0-8.8h3.245a17.209 17.209 0 0 1 1.518-3.916A8.785 8.785 0 0 0 3.388 6.6zM11 19.756A15.49 15.49 0 0 1 8.899 15.4H13.1A15.498 15.498 0 0 1 11 19.756zM8.25 11c0 .748.077 1.474.176 2.2h5.148c.1-.726.176-1.452.176-2.2 0-.748-.077-1.485-.176-2.2H8.426c-.1.715-.176 1.452-.176 2.2zm5.6 8.316a17.224 17.224 0 0 0 1.517-3.916h3.245a8.833 8.833 0 0 1-4.763 3.916zM15.95 11c0 .748-.066 1.474-.154 2.2h3.718A9.066 9.066 0 0 0 19.8 11c0-.759-.11-1.496-.286-2.2h-3.718c.088.726.154 1.452.154 2.2z"/>
    </defs>
</svg>
